# Blender 4.1.1
# www.blender.org
mtllib heartcoin1.mtl
o Cylinder
v 0.000000 0.862929 -0.099694
v 0.000000 0.877292 0.099694
v 0.168349 0.846348 -0.099694
v 0.171151 0.860435 0.099694
v 0.330229 0.797243 -0.099694
v 0.335725 0.810512 0.099694
v 0.479418 0.717500 -0.099694
v 0.487397 0.729442 0.099694
v 0.610183 0.610183 -0.099694
v 0.620339 0.620339 0.099694
v 0.717500 0.479418 -0.099694
v 0.729442 0.487397 0.099694
v 0.797243 0.330229 -0.099694
v 0.810512 0.335725 0.099694
v 0.846348 0.168349 -0.099694
v 0.860435 0.171151 0.099694
v 0.862929 0.000000 -0.099694
v 0.877292 -0.000000 0.099694
v 0.846348 -0.168349 -0.099694
v 0.860435 -0.171151 0.099694
v 0.797243 -0.330229 -0.099694
v 0.810512 -0.335725 0.099694
v 0.717500 -0.479418 -0.099694
v 0.729442 -0.487397 0.099694
v 0.610183 -0.610183 -0.099694
v 0.620339 -0.620339 0.099694
v 0.479418 -0.717500 -0.099694
v 0.487397 -0.729442 0.099694
v 0.330229 -0.797243 -0.099694
v 0.335725 -0.810512 0.099694
v 0.168349 -0.846348 -0.099694
v 0.171151 -0.860435 0.099694
v 0.000000 -0.862929 -0.099694
v 0.000000 -0.877292 0.099694
v -0.168349 -0.846348 -0.099694
v -0.171151 -0.860435 0.099694
v -0.330229 -0.797243 -0.099694
v -0.335725 -0.810512 0.099694
v -0.479418 -0.717500 -0.099694
v -0.487397 -0.729442 0.099694
v -0.610183 -0.610183 -0.099694
v -0.620339 -0.620339 0.099694
v -0.717500 -0.479418 -0.099694
v -0.729442 -0.487397 0.099694
v -0.797243 -0.330229 -0.099694
v -0.810512 -0.335725 0.099694
v -0.846348 -0.168349 -0.099694
v -0.860435 -0.171151 0.099694
v -0.862929 0.000000 -0.099694
v -0.877292 -0.000000 0.099694
v -0.846348 0.168349 -0.099694
v -0.860435 0.171151 0.099694
v -0.797243 0.330229 -0.099694
v -0.810512 0.335725 0.099694
v -0.717500 0.479418 -0.099694
v -0.729442 0.487397 0.099694
v -0.610183 0.610183 -0.099694
v -0.620339 0.620339 0.099694
v -0.479418 0.717500 -0.099694
v -0.487397 0.729442 0.099694
v -0.330229 0.797243 -0.099694
v -0.335725 0.810512 0.099694
v -0.168349 0.846348 -0.099694
v -0.171151 0.860435 0.099694
v 0.195090 0.980785 0.099694
v 0.000000 1.000000 0.099694
v 0.382683 0.923880 0.099694
v 0.555570 0.831470 0.099694
v 0.707107 0.707107 0.099694
v 0.831470 0.555570 0.099694
v 0.923880 0.382683 0.099694
v 0.980785 0.195090 0.099694
v 1.000000 -0.000000 0.099694
v 0.980785 -0.195090 0.099694
v 0.923880 -0.382683 0.099694
v 0.831470 -0.555570 0.099694
v 0.707107 -0.707107 0.099694
v 0.555570 -0.831470 0.099694
v 0.382683 -0.923880 0.099694
v 0.195090 -0.980785 0.099694
v 0.000000 -1.000000 0.099694
v -0.195090 -0.980785 0.099694
v -0.382683 -0.923880 0.099694
v -0.555570 -0.831470 0.099694
v -0.707107 -0.707107 0.099694
v -0.831470 -0.555570 0.099694
v -0.923880 -0.382683 0.099694
v -0.980785 -0.195090 0.099694
v -1.000000 -0.000000 0.099694
v -0.980785 0.195090 0.099694
v -0.923880 0.382683 0.099694
v -0.831470 0.555570 0.099694
v -0.707107 0.707107 0.099694
v -0.555570 0.831470 0.099694
v -0.382683 0.923880 0.099694
v -0.195090 0.980785 0.099694
v 0.171151 0.860435 0.024108
v 0.000000 0.877292 0.024108
v 0.335725 0.810512 0.024108
v 0.487397 0.729442 0.024108
v 0.620339 0.620339 0.024108
v 0.729442 0.487397 0.024108
v 0.810512 0.335725 0.024108
v 0.860435 0.171151 0.024108
v 0.877292 -0.000000 0.024108
v 0.860435 -0.171151 0.024108
v 0.810512 -0.335725 0.024108
v 0.729442 -0.487397 0.024108
v 0.620339 -0.620339 0.024108
v 0.487397 -0.729442 0.024108
v 0.335725 -0.810512 0.024108
v 0.171151 -0.860435 0.024108
v 0.000000 -0.877292 0.024108
v -0.171151 -0.860435 0.024108
v -0.335725 -0.810512 0.024108
v -0.487397 -0.729442 0.024108
v -0.620339 -0.620339 0.024108
v -0.729442 -0.487397 0.024108
v -0.810512 -0.335725 0.024108
v -0.860435 -0.171151 0.024108
v -0.877292 -0.000000 0.024108
v -0.860435 0.171151 0.024108
v -0.810512 0.335725 0.024108
v -0.729442 0.487397 0.024108
v -0.620339 0.620339 0.024108
v -0.487397 0.729442 0.024108
v -0.335725 0.810512 0.024108
v -0.171151 0.860435 0.024108
v 0.000000 1.000000 -0.099694
v 0.195090 0.980785 -0.099694
v 0.382683 0.923880 -0.099694
v 0.555570 0.831470 -0.099694
v 0.707107 0.707107 -0.099694
v 0.831470 0.555570 -0.099694
v 0.923880 0.382683 -0.099694
v 0.980785 0.195090 -0.099694
v 1.000000 0.000000 -0.099694
v 0.980785 -0.195090 -0.099694
v 0.923880 -0.382683 -0.099694
v 0.831470 -0.555570 -0.099694
v 0.707107 -0.707107 -0.099694
v 0.555570 -0.831470 -0.099694
v 0.382683 -0.923880 -0.099694
v 0.195090 -0.980785 -0.099694
v 0.000000 -1.000000 -0.099694
v -0.195090 -0.980785 -0.099694
v -0.382683 -0.923880 -0.099694
v -0.555570 -0.831470 -0.099694
v -0.707107 -0.707107 -0.099694
v -0.831470 -0.555570 -0.099694
v -0.923880 -0.382683 -0.099694
v -0.980785 -0.195090 -0.099694
v -1.000000 0.000000 -0.099694
v -0.980785 0.195090 -0.099694
v -0.923880 0.382683 -0.099694
v -0.831470 0.555570 -0.099694
v -0.707107 0.707107 -0.099694
v -0.555570 0.831470 -0.099694
v -0.382683 0.923880 -0.099694
v -0.195090 0.980785 -0.099694
v -0.000000 0.862929 -0.019574
v 0.168349 0.846348 -0.019574
v 0.330229 0.797243 -0.019574
v 0.479418 0.717500 -0.019574
v 0.610183 0.610183 -0.019574
v 0.717500 0.479418 -0.019574
v 0.797243 0.330229 -0.019574
v 0.846348 0.168349 -0.019574
v 0.862929 0.000000 -0.019574
v 0.846348 -0.168349 -0.019574
v 0.797243 -0.330229 -0.019574
v 0.717500 -0.479418 -0.019574
v 0.610183 -0.610183 -0.019574
v 0.479418 -0.717500 -0.019574
v 0.330229 -0.797243 -0.019574
v 0.168349 -0.846348 -0.019574
v -0.000000 -0.862929 -0.019574
v -0.168349 -0.846348 -0.019574
v -0.330229 -0.797243 -0.019574
v -0.479418 -0.717500 -0.019574
v -0.610183 -0.610183 -0.019574
v -0.717500 -0.479418 -0.019574
v -0.797243 -0.330229 -0.019574
v -0.846348 -0.168349 -0.019574
v -0.862929 0.000000 -0.019574
v -0.846348 0.168349 -0.019574
v -0.797243 0.330229 -0.019574
v -0.717500 0.479418 -0.019574
v -0.610183 0.610183 -0.019574
v -0.479418 0.717500 -0.019574
v -0.330229 0.797243 -0.019574
v -0.168349 0.846348 -0.019574
vn 0.0980 0.9952 -0.0000
vn 0.2903 0.9569 -0.0000
vn 0.4714 0.8819 -0.0000
vn 0.6344 0.7730 -0.0000
vn 0.7730 0.6344 -0.0000
vn 0.8819 0.4714 -0.0000
vn 0.9569 0.2903 -0.0000
vn 0.9952 0.0980 -0.0000
vn 0.9952 -0.0980 -0.0000
vn 0.9569 -0.2903 -0.0000
vn 0.8819 -0.4714 -0.0000
vn 0.7730 -0.6344 -0.0000
vn 0.6344 -0.7730 -0.0000
vn 0.4714 -0.8819 -0.0000
vn 0.2903 -0.9569 -0.0000
vn 0.0980 -0.9952 -0.0000
vn -0.0980 -0.9952 -0.0000
vn -0.2903 -0.9569 -0.0000
vn -0.4714 -0.8819 -0.0000
vn -0.6344 -0.7730 -0.0000
vn -0.7730 -0.6344 -0.0000
vn -0.8819 -0.4714 -0.0000
vn -0.9569 -0.2903 -0.0000
vn -0.9952 -0.0980 -0.0000
vn -0.9952 0.0980 -0.0000
vn -0.9569 0.2903 -0.0000
vn -0.8819 0.4714 -0.0000
vn -0.7730 0.6344 -0.0000
vn -0.6344 0.7730 -0.0000
vn -0.4714 0.8819 -0.0000
vn -0.2903 0.9569 -0.0000
vn -0.0980 0.9952 -0.0000
vn -0.0000 -0.0000 1.0000
vn -0.0000 -0.0000 -1.0000
vt 1.000000 0.500000
vt 1.000000 1.000000
vt 0.968750 1.000000
vt 0.968750 0.500000
vt 0.937500 1.000000
vt 0.937500 0.500000
vt 0.906250 1.000000
vt 0.906250 0.500000
vt 0.875000 1.000000
vt 0.875000 0.500000
vt 0.843750 1.000000
vt 0.843750 0.500000
vt 0.812500 1.000000
vt 0.812500 0.500000
vt 0.781250 1.000000
vt 0.781250 0.500000
vt 0.750000 1.000000
vt 0.750000 0.500000
vt 0.718750 1.000000
vt 0.718750 0.500000
vt 0.687500 1.000000
vt 0.687500 0.500000
vt 0.656250 1.000000
vt 0.656250 0.500000
vt 0.625000 1.000000
vt 0.625000 0.500000
vt 0.593750 1.000000
vt 0.593750 0.500000
vt 0.562500 1.000000
vt 0.562500 0.500000
vt 0.531250 1.000000
vt 0.531250 0.500000
vt 0.500000 1.000000
vt 0.500000 0.500000
vt 0.468750 1.000000
vt 0.468750 0.500000
vt 0.437500 1.000000
vt 0.437500 0.500000
vt 0.406250 1.000000
vt 0.406250 0.500000
vt 0.375000 1.000000
vt 0.375000 0.500000
vt 0.343750 1.000000
vt 0.343750 0.500000
vt 0.312500 1.000000
vt 0.312500 0.500000
vt 0.281250 1.000000
vt 0.281250 0.500000
vt 0.250000 1.000000
vt 0.250000 0.500000
vt 0.218750 1.000000
vt 0.218750 0.500000
vt 0.187500 1.000000
vt 0.187500 0.500000
vt 0.156250 1.000000
vt 0.156250 0.500000
vt 0.125000 1.000000
vt 0.125000 0.500000
vt 0.093750 1.000000
vt 0.093750 0.500000
vt 0.062500 1.000000
vt 0.062500 0.500000
vt 0.043496 0.208924
vt 0.055477 0.169426
vt 0.031250 1.000000
vt 0.031250 0.500000
vt 0.000000 1.000000
vt 0.000000 0.500000
vt 0.546876 0.290404
vt 0.558662 0.329255
vt 0.250000 0.460550
vt 0.291076 0.456505
vt 0.296822 0.485388
vt 0.250000 0.490000
vt 0.330574 0.444523
vt 0.341844 0.471731
vt 0.366975 0.425066
vt 0.383337 0.449553
vt 0.398881 0.398881
vt 0.419706 0.419706
vt 0.425066 0.366975
vt 0.449553 0.383337
vt 0.444523 0.330574
vt 0.471731 0.341844
vt 0.456504 0.291076
vt 0.485388 0.296822
vt 0.460550 0.250000
vt 0.490000 0.250000
vt 0.456504 0.208924
vt 0.485388 0.203178
vt 0.444523 0.169426
vt 0.471731 0.158156
vt 0.425066 0.133025
vt 0.449553 0.116663
vt 0.398881 0.101119
vt 0.419706 0.080294
vt 0.366975 0.074934
vt 0.383337 0.050447
vt 0.330574 0.055477
vt 0.341844 0.028269
vt 0.291076 0.043496
vt 0.296822 0.014612
vt 0.250000 0.039450
vt 0.250000 0.010000
vt 0.208924 0.043496
vt 0.203178 0.014612
vt 0.169426 0.055477
vt 0.158156 0.028269
vt 0.133025 0.074934
vt 0.116663 0.050447
vt 0.101119 0.101119
vt 0.080294 0.080294
vt 0.074934 0.133025
vt 0.050447 0.116663
vt 0.028269 0.158156
vt 0.014612 0.203178
vt 0.039450 0.250000
vt 0.010000 0.250000
vt 0.043496 0.291076
vt 0.014612 0.296822
vt 0.055477 0.330574
vt 0.028269 0.341844
vt 0.074934 0.366975
vt 0.050447 0.383337
vt 0.101119 0.398881
vt 0.080294 0.419706
vt 0.133025 0.425066
vt 0.116663 0.449553
vt 0.169426 0.444523
vt 0.158156 0.471731
vt 0.208924 0.456505
vt 0.203178 0.485388
vt 0.790404 0.453124
vt 0.750000 0.457103
vt 0.750000 0.490000
vt 0.796822 0.485388
vt 0.829255 0.441338
vt 0.841844 0.471731
vt 0.865060 0.422200
vt 0.883337 0.449553
vt 0.896444 0.396444
vt 0.919706 0.419706
vt 0.922200 0.365060
vt 0.949553 0.383337
vt 0.941338 0.329255
vt 0.971731 0.341844
vt 0.953124 0.290404
vt 0.985388 0.296822
vt 0.957103 0.250000
vt 0.990000 0.250000
vt 0.953124 0.209596
vt 0.985388 0.203178
vt 0.941338 0.170745
vt 0.971731 0.158156
vt 0.922200 0.134940
vt 0.949553 0.116663
vt 0.896444 0.103556
vt 0.919706 0.080294
vt 0.865060 0.077800
vt 0.883337 0.050447
vt 0.829255 0.058662
vt 0.841844 0.028269
vt 0.790404 0.046876
vt 0.796822 0.014612
vt 0.750000 0.042897
vt 0.750000 0.010000
vt 0.709596 0.046876
vt 0.703178 0.014612
vt 0.670745 0.058662
vt 0.658156 0.028269
vt 0.634940 0.077800
vt 0.616663 0.050447
vt 0.603556 0.103556
vt 0.580294 0.080294
vt 0.577800 0.134940
vt 0.550447 0.116663
vt 0.558662 0.170745
vt 0.528269 0.158156
vt 0.546876 0.209596
vt 0.514612 0.203178
vt 0.542897 0.250000
vt 0.510000 0.250000
vt 0.514612 0.296822
vt 0.528269 0.341844
vt 0.577800 0.365060
vt 0.550447 0.383337
vt 0.603556 0.396444
vt 0.580294 0.419706
vt 0.634940 0.422200
vt 0.616663 0.449553
vt 0.670745 0.441338
vt 0.658156 0.471731
vt 0.709596 0.453124
vt 0.703178 0.485388
s 0
usemtl Material.001
f 129/1/1 66/2/1 65/3/1 130/4/1
f 130/4/2 65/3/2 67/5/2 131/6/2
f 131/6/3 67/5/3 68/7/3 132/8/3
f 132/8/4 68/7/4 69/9/4 133/10/4
f 133/10/5 69/9/5 70/11/5 134/12/5
f 134/12/6 70/11/6 71/13/6 135/14/6
f 135/14/7 71/13/7 72/15/7 136/16/7
f 136/16/8 72/15/8 73/17/8 137/18/8
f 137/18/9 73/17/9 74/19/9 138/20/9
f 138/20/10 74/19/10 75/21/10 139/22/10
f 139/22/11 75/21/11 76/23/11 140/24/11
f 140/24/12 76/23/12 77/25/12 141/26/12
f 141/26/13 77/25/13 78/27/13 142/28/13
f 142/28/14 78/27/14 79/29/14 143/30/14
f 143/30/15 79/29/15 80/31/15 144/32/15
f 144/32/16 80/31/16 81/33/16 145/34/16
f 145/34/17 81/33/17 82/35/17 146/36/17
f 146/36/18 82/35/18 83/37/18 147/38/18
f 147/38/19 83/37/19 84/39/19 148/40/19
f 148/40/20 84/39/20 85/41/20 149/42/20
f 149/42/21 85/41/21 86/43/21 150/44/21
f 150/44/22 86/43/22 87/45/22 151/46/22
f 151/46/23 87/45/23 88/47/23 152/48/23
f 152/48/24 88/47/24 89/49/24 153/50/24
f 153/50/25 89/49/25 90/51/25 154/52/25
f 154/52/26 90/51/26 91/53/26 155/54/26
f 155/54/27 91/53/27 92/55/27 156/56/27
f 156/56/28 92/55/28 93/57/28 157/58/28
f 157/58/29 93/57/29 94/59/29 158/60/29
f 158/60/30 94/59/30 95/61/30 159/62/30
f 48/63/7 46/64/7 119/64/7 120/63/7
f 159/62/31 95/61/31 96/65/31 160/66/31
f 160/66/32 96/65/32 66/67/32 129/68/32
f 51/69/10 53/70/10 187/70/10 186/69/10
f 2/71/33 4/72/33 65/73/33 66/74/33
f 4/72/33 6/75/33 67/76/33 65/73/33
f 6/75/33 8/77/33 68/78/33 67/76/33
f 8/77/33 10/79/33 69/80/33 68/78/33
f 10/79/33 12/81/33 70/82/33 69/80/33
f 12/81/33 14/83/33 71/84/33 70/82/33
f 14/83/33 16/85/33 72/86/33 71/84/33
f 16/85/33 18/87/33 73/88/33 72/86/33
f 18/87/33 20/89/33 74/90/33 73/88/33
f 20/89/33 22/91/33 75/92/33 74/90/33
f 22/91/33 24/93/33 76/94/33 75/92/33
f 24/93/33 26/95/33 77/96/33 76/94/33
f 26/95/33 28/97/33 78/98/33 77/96/33
f 28/97/33 30/99/33 79/100/33 78/98/33
f 30/99/33 32/101/33 80/102/33 79/100/33
f 32/101/33 34/103/33 81/104/33 80/102/33
f 34/103/33 36/105/33 82/106/33 81/104/33
f 36/105/33 38/107/33 83/108/33 82/106/33
f 38/107/33 40/109/33 84/110/33 83/108/33
f 40/109/33 42/111/33 85/112/33 84/110/33
f 42/111/33 44/113/33 86/114/33 85/112/33
f 44/113/33 46/64/33 87/115/33 86/114/33
f 46/64/33 48/63/33 88/116/33 87/115/33
f 48/63/33 50/117/33 89/118/33 88/116/33
f 50/117/33 52/119/33 90/120/33 89/118/33
f 52/119/33 54/121/33 91/122/33 90/120/33
f 54/121/33 56/123/33 92/124/33 91/122/33
f 56/123/33 58/125/33 93/126/33 92/124/33
f 58/125/33 60/127/33 94/128/33 93/126/33
f 60/127/33 62/129/33 95/130/33 94/128/33
f 62/129/33 64/131/33 96/132/33 95/130/33
f 64/131/33 2/71/33 66/74/33 96/132/33
f 97/72/33 98/71/33 128/131/33 127/129/33 126/127/33 125/125/33 124/123/33 123/121/33 122/119/33 121/117/33 120/63/33 119/64/33 118/113/33 117/111/33 116/109/33 115/107/33 114/105/33 113/103/33 112/101/33 111/99/33 110/97/33 109/95/33 108/93/33 107/91/33 106/89/33 105/87/33 104/85/33 103/83/33 102/81/33 101/79/33 100/77/33 99/75/33
f 22/91/26 20/89/26 106/89/26 107/91/26
f 50/117/8 48/63/8 120/63/8 121/117/8
f 24/93/27 22/91/27 107/91/27 108/93/27
f 52/119/9 50/117/9 121/117/9 122/119/9
f 26/95/28 24/93/28 108/93/28 109/95/28
f 54/121/10 52/119/10 122/119/10 123/121/10
f 28/97/29 26/95/29 109/95/29 110/97/29
f 56/123/11 54/121/11 123/121/11 124/123/11
f 30/99/30 28/97/30 110/97/30 111/99/30
f 4/72/17 2/71/17 98/71/17 97/72/17
f 58/125/12 56/123/12 124/123/12 125/125/12
f 32/101/31 30/99/31 111/99/31 112/101/31
f 6/75/18 4/72/18 97/72/18 99/75/18
f 60/127/13 58/125/13 125/125/13 126/127/13
f 34/103/32 32/101/32 112/101/32 113/103/32
f 8/77/19 6/75/19 99/75/19 100/77/19
f 62/129/14 60/127/14 126/127/14 127/129/14
f 36/105/1 34/103/1 113/103/1 114/105/1
f 10/79/20 8/77/20 100/77/20 101/79/20
f 64/131/15 62/129/15 127/129/15 128/131/15
f 38/107/2 36/105/2 114/105/2 115/107/2
f 12/81/21 10/79/21 101/79/21 102/81/21
f 2/71/16 64/131/16 128/131/16 98/71/16
f 40/109/3 38/107/3 115/107/3 116/109/3
f 14/83/22 12/81/22 102/81/22 103/83/22
f 42/111/4 40/109/4 116/109/4 117/111/4
f 16/85/23 14/83/23 103/83/23 104/85/23
f 44/113/5 42/111/5 117/111/5 118/113/5
f 18/87/24 16/85/24 104/85/24 105/87/24
f 46/64/6 44/113/6 118/113/6 119/64/6
f 20/89/25 18/87/25 105/87/25 106/89/25
f 3/133/34 1/134/34 129/135/34 130/136/34
f 5/137/34 3/133/34 130/136/34 131/138/34
f 7/139/34 5/137/34 131/138/34 132/140/34
f 9/141/34 7/139/34 132/140/34 133/142/34
f 11/143/34 9/141/34 133/142/34 134/144/34
f 13/145/34 11/143/34 134/144/34 135/146/34
f 15/147/34 13/145/34 135/146/34 136/148/34
f 17/149/34 15/147/34 136/148/34 137/150/34
f 19/151/34 17/149/34 137/150/34 138/152/34
f 21/153/34 19/151/34 138/152/34 139/154/34
f 23/155/34 21/153/34 139/154/34 140/156/34
f 25/157/34 23/155/34 140/156/34 141/158/34
f 27/159/34 25/157/34 141/158/34 142/160/34
f 29/161/34 27/159/34 142/160/34 143/162/34
f 31/163/34 29/161/34 143/162/34 144/164/34
f 33/165/34 31/163/34 144/164/34 145/166/34
f 35/167/34 33/165/34 145/166/34 146/168/34
f 37/169/34 35/167/34 146/168/34 147/170/34
f 39/171/34 37/169/34 147/170/34 148/172/34
f 41/173/34 39/171/34 148/172/34 149/174/34
f 43/175/34 41/173/34 149/174/34 150/176/34
f 45/177/34 43/175/34 150/176/34 151/178/34
f 47/179/34 45/177/34 151/178/34 152/180/34
f 49/181/34 47/179/34 152/180/34 153/182/34
f 51/69/34 49/181/34 153/182/34 154/183/34
f 53/70/34 51/69/34 154/183/34 155/184/34
f 55/185/34 53/70/34 155/184/34 156/186/34
f 57/187/34 55/185/34 156/186/34 157/188/34
f 59/189/34 57/187/34 157/188/34 158/190/34
f 61/191/34 59/189/34 158/190/34 159/192/34
f 63/193/34 61/191/34 159/192/34 160/194/34
f 1/134/34 63/193/34 160/194/34 129/135/34
f 161/134/34 162/133/34 163/137/34 164/139/34 165/141/34 166/143/34 167/145/34 168/147/34 169/149/34 170/151/34 171/153/34 172/155/34 173/157/34 174/159/34 175/161/34 176/163/34 177/165/34 178/167/34 179/169/34 180/171/34 181/173/34 182/175/34 183/177/34 184/179/34 185/181/34 186/69/34 187/70/34 188/185/34 189/187/34 190/189/34 191/191/34 192/193/34
f 25/157/29 27/159/29 174/159/29 173/157/29
f 53/70/11 55/185/11 188/185/11 187/70/11
f 27/159/30 29/161/30 175/161/30 174/159/30
f 1/134/17 3/133/17 162/133/17 161/134/17
f 55/185/12 57/187/12 189/187/12 188/185/12
f 29/161/31 31/163/31 176/163/31 175/161/31
f 3/133/18 5/137/18 163/137/18 162/133/18
f 57/187/13 59/189/13 190/189/13 189/187/13
f 31/163/32 33/165/32 177/165/32 176/163/32
f 5/137/19 7/139/19 164/139/19 163/137/19
f 59/189/14 61/191/14 191/191/14 190/189/14
f 33/165/1 35/167/1 178/167/1 177/165/1
f 7/139/20 9/141/20 165/141/20 164/139/20
f 61/191/15 63/193/15 192/193/15 191/191/15
f 35/167/2 37/169/2 179/169/2 178/167/2
f 9/141/21 11/143/21 166/143/21 165/141/21
f 63/193/16 1/134/16 161/134/16 192/193/16
f 37/169/3 39/171/3 180/171/3 179/169/3
f 11/143/22 13/145/22 167/145/22 166/143/22
f 39/171/4 41/173/4 181/173/4 180/171/4
f 13/145/23 15/147/23 168/147/23 167/145/23
f 41/173/5 43/175/5 182/175/5 181/173/5
f 15/147/24 17/149/24 169/149/24 168/147/24
f 43/175/6 45/177/6 183/177/6 182/175/6
f 17/149/25 19/151/25 170/151/25 169/149/25
f 45/177/7 47/179/7 184/179/7 183/177/7
f 19/151/26 21/153/26 171/153/26 170/151/26
f 47/179/8 49/181/8 185/181/8 184/179/8
f 21/153/27 23/155/27 172/155/27 171/153/27
f 49/181/9 51/69/9 186/69/9 185/181/9
f 23/155/28 25/157/28 173/157/28 172/155/28
